# xmcd
#
# Track frame offsets:
#	150
#	15527
#	28991
#	45532
#	61738
#	75560
#	90161
#	99955
#	112905
#	130385
#	144313
#	159564
#	171228
#	185628
#	199195
#	218031
#
# Disc length: 3164 seconds
#
# Revision: 1
# Processed by: cddbd v1.5.1PL0 Copyright (c) Steve Scherf et al.
# Submitted via: audiograbber 1.83.01
#
DISCID=cb0c5a10
DTITLE=Πόλυ Πάνου - Αυτά που ήθελα να πώ -cd 2
DYEAR=1900
DGENRE=
TTITLE0=Τα ξένα χέρια
TTITLE1=Εγώ είμαι ένα παλιόπαιδο
TTITLE2=Γυφτοπούλα στο χαμάμ
TTITLE3=Υπάρχουν και καλά παιδιά
TTITLE4=Πέφτεις σε λάθη
TTITLE5=Οταν κοιμάται ο δυστυχής
TTITLE6=Ενας αλήτης πέθανε
TTITLE7=Καλέ μάνα δεν μπορώ
TTITLE8=Γιατί με ξύπνησες πρωί
TTITLE9=Μην μου λες γιατί ξεχνάω
TTITLE10=Παραπονιάρικο
TTITLE11=Αλεχανδριανή φελλάχα
TTITLE12=Απ΄τις παρανομίες μου
TTITLE13=Στο σταυροδρόμι
TTITLE14=Πήρα την στράτα και έρχομαι
TTITLE15=Ολοι οι ρεμπέτες του ντουνιά
EXTD=
EXTT0=
EXTT1=
EXTT2=
EXTT3=
EXTT4=
EXTT5=
EXTT6=
EXTT7=
EXTT8=
EXTT9=
EXTT10=
EXTT11=
EXTT12=
EXTT13=
EXTT14=
EXTT15=
PLAYORDER=
